<?xml version="1.0" encoding="iso-8859-1"?>
<!-- Generator: Adobe Illustrator 19.0.0, SVG Export Plug-In . SVG Version: 6.00 Build 0)  -->
<svg version="1.1" id="Capa_1" xmlns="http://www.w3.org/2000/svg" xmlns:xlink="http://www.w3.org/1999/xlink" x="0px" y="0px"
	 viewBox="0 0 512 512" style="enable-background:new 0 0 512 512;" xml:space="preserve">
<g>
	<g>
		<g>
			<circle cx="256" cy="138.667" r="32"/>
			<path d="M256,0C114.844,0,0,114.844,0,256s114.844,256,256,256s256-114.844,256-256S397.156,0,256,0z M394.667,85.333H416
				c0.258,0,0.474,0.128,0.727,0.146c3.362,3.172,6.622,6.432,9.794,9.794c0.018,0.253,0.146,0.469,0.146,0.727
				c0,5.896-4.771,10.667-10.667,10.667h-21.333C388.771,106.667,384,101.896,384,96S388.771,85.333,394.667,85.333z
				 M394.667,149.333h64c3.077,0,5.799,1.339,7.745,3.419c0.852,1.727,1.702,3.453,2.51,5.203c0.138,0.685,0.411,1.319,0.411,2.044
				c0,5.896-4.771,10.667-10.667,10.667h-64c-5.896,0-10.667-4.771-10.667-10.667S388.771,149.333,394.667,149.333z M256,64
				c41.167,0,74.667,33.5,74.667,74.667c0,41.167-33.5,74.667-74.667,74.667s-74.667-33.5-74.667-74.667
				C181.333,97.5,214.833,64,256,64z M74.667,128h64c5.896,0,10.667,4.771,10.667,10.667c0,5.896-4.771,10.667-10.667,10.667h-64
				c-5.896,0-10.667-4.771-10.667-10.667C64,132.771,68.771,128,74.667,128z M117.333,384H64c-2.052,0-3.857-0.732-5.482-1.733
				c-1.753-2.73-3.421-5.516-5.061-8.322c-0.013-0.214-0.124-0.395-0.124-0.612c0-5.896,4.771-10.667,10.667-10.667h53.333
				c5.896,0,10.667,4.771,10.667,10.667C128,379.229,123.229,384,117.333,384z M160,320H53.333c-5.896,0-10.667-4.771-10.667-10.667
				c0-5.896,4.771-10.667,10.667-10.667H160c5.896,0,10.667,4.771,10.667,10.667C170.667,315.229,165.896,320,160,320z
				 M426.521,416.727c-3.172,3.362-6.432,6.622-9.794,9.794c-0.253,0.018-0.469,0.146-0.727,0.146h-85.333
				c-5.896,0-10.667-4.771-10.667-10.667c0-5.896,4.771-10.667,10.667-10.667H416c5.896,0,10.667,4.771,10.667,10.667
				C426.667,416.258,426.539,416.474,426.521,416.727z M426.667,362.667H309.333c-5.896,0-10.667-4.771-10.667-10.667
				c0-5.896,4.771-10.667,10.667-10.667h117.333c5.896,0,10.667,4.771,10.667,10.667
				C437.333,357.896,432.563,362.667,426.667,362.667z M21.874,266.667c-0.161-3.561-0.54-7.066-0.54-10.667
				s0.379-7.105,0.54-10.667h468.253c0.161,3.561,0.54,7.066,0.54,10.667s-0.379,7.105-0.54,10.667H21.874z"/>
		</g>
	</g>
</g>
<g>
</g>
<g>
</g>
<g>
</g>
<g>
</g>
<g>
</g>
<g>
</g>
<g>
</g>
<g>
</g>
<g>
</g>
<g>
</g>
<g>
</g>
<g>
</g>
<g>
</g>
<g>
</g>
<g>
</g>
</svg>
