<?xml version="1.0" encoding="utf-8"?>
<!-- Generator: Adobe Illustrator 21.1.0, SVG Export Plug-In . SVG Version: 6.00 Build 0)  -->
<svg version="1.1" id="Layer_1" xmlns="http://www.w3.org/2000/svg" xmlns:xlink="http://www.w3.org/1999/xlink" x="0px" y="0px"
	 viewBox="0 0 60.2 94.8" style="enable-background:new 0 0 60.2 94.8;" xml:space="preserve">
<style type="text/css">
	.st0{fill:#7C410B;}
</style>
<g>
	<path class="st0" d="M34.8,36.2c-0.9,0.1-1.6,1-1.6,1.8l0,0l0,0c0,3.5,10.4,9.4,10.2,15.1c0,0.6,1,0.7,1,0c0.3-5.4-7.6-10.5-9.7-14
		c1.7,0.6,4.6,0.6,5.6-1.1c0.2-0.2,0.1-0.5-0.1-0.7c-0.1-0.1-0.2-0.1-0.3-0.2l0,0c1.4,0,2.9,0.1,3.6,0.8c0.4,0.4,1.1,0,0.8-0.5
		C43.3,35.7,36.3,36,34.8,36.2z M34.2,37.8c0.1-0.2,0.3-0.5,0.5-0.6c0,0.2-0.1,0.5,0.2,0.9C34.5,38.1,34.3,37.9,34.2,37.8z
		 M36.3,38.1c-0.4,0-0.8-0.5-0.6-0.9c0.3,0,0.7,0,1.2,0C37.2,37.7,36.7,38.1,36.3,38.1z M37.6,38.5c0.4-0.5,0.4-1,0.3-1.2
		c0.3,0.1,0.8,0.4,1.1,0.7C38.6,38.4,38.2,38.4,37.6,38.5z"/>
	<path class="st0" d="M52.1,72.2c1.6-0.5,3-1.7,3.4-2.4c0.4-0.7-0.2-1.8-1.1-1.5c-5,1.5-5.6-3-2.8-6c6.1-6.3,5.2-10.1,3.7-16.5
		c-0.6-2.6-1.3-5.4-1.4-8.2c-0.1-5.5,1.6-17.8-6.8-25.9c-1.1-2.1-3.4-4.6-6.4-5.5c-1.1-1-3-2.1-5.4-2.3c-2.5-1-6.8-1.1-9.2,0
		c-2.7,0-4.6,0.5-6.9,2.8c-3.4,1.5-5.2,3-7.1,5.8c-4.4,4.9-6.1,16-5.8,24.3c0.1,3-0.7,5.7-1.4,8.3c-2.4,8.6-2.2,13.7,7,20.7
		c3.3,2.5,5,4.1,0.4,7.7c-1.5,1.2-3.1,2.4-3.3,4.3c-0.1,1.1,1.2,1.4,1.8,0.8c0.6-0.7,3.5-1.3,4.6-1.9c-0.5,5,2.8,8.4,5.4,9.6
		c0.9,0.4,1.9-0.8,1.1-1.6c-0.2-0.2-0.8-0.9-1.1-2.5c2.1,2.6,4.2,3.9,4,6.7c-0.1,0.7,1,1.6,1.7,0.7c2.8-3.1,3.1-6.6,2.3-9.5
		c3.1,2.6,5,7.7,0.8,9.9c-1.1,0.6-0.4,2.1,0.5,1.9c1.7-0.5,11.5-3,11.6-12.7c2.8,2.3,7.3,3.2,11.1,3.3c1.2,0,1.4-1.7,0.3-2
		c-2-0.5-3.5-1.5-4.6-2.7c3,1.1,5,0.9,6.7,4.2c0.4,0.7,1.6,0.8,1.9-0.3C58.1,77.3,55,74.3,52.1,72.2z M45.6,72.8
		c-0.7-1.1-2.3-0.2-1.8,0.9c0.8,1.7,1.9,4.1,4,6.1c-3.4-0.9-5.9-2.6-6.4-4.7c-0.3-1.2-2.2-0.8-1.9,0.4c0.5,2.5,1.4,7.8-3.8,11.6
		c1.2-1.8,2.1-4.2,1.3-6.5c-0.2-0.6-1.2-0.3-0.9,0.3c0.9,2.5-0.7,5.1-2.1,6.8c1.2-4.3-2.4-9.5-6.8-11.1c-0.7-0.3-1.8,0.5-1.2,1.5
		c0.7,1.1,2.4,4.4,0.6,8.1c-1.3-3.7-5.3-5.2-5.6-8.6c-0.1-1.2-1.8-1.2-2,0c-0.3,1.8-0.2,3.2-0.1,4.4c-1.3-1.8-2-4.3-0.9-7.5
		c0.4-1.2-1.1-1.7-1.7-1c-1,1.1-2.1,1.5-3.2,1.9c4.9-3.9,5.8-6.9,0.6-10.9c-0.8-1.4-1.7-3.8-1.7-7.3c0-0.7-1-0.7-1,0
		c0,2.5,0.4,4.5,0.9,6c-0.6-0.5-1.2-0.9-1.7-1.4c-5.1-13.4,0.9-15.4,4.2-17.5c0.6-0.4,0-1.2-0.5-0.8c-3.1,2-9.4,4.2-5.4,16.7
		c-4.3-5.1-2.9-9.9-1.6-14.4c0.8-2.8,1.6-5.6,1.5-8.9c0-1,0-2.1,0-3.1c3.8-11.1,8.3-5.5,12.3-4.9c0.7,0.1,0.8-0.9,0.2-1
		c-3.4-0.8-8.4-5.8-12.4,2.6c0.3-4.3,1.2-8.6,2.5-12.1c7.8-6.7,14.3-0.1,16.9,5.6c0.3,0.6,1.2,0.3,0.9-0.4
		c-2.4-5.4-8.9-12.5-16.9-7.1c0.5-1.1,1.2-2,1.8-2.7l0.1-0.1c1.7-2.6,3.2-3.8,6.5-5.2c0.1-0.1,0.3-0.1,0.3-0.2
		c1.8-2,3.2-2.3,5.5-2.3c0.6,0.4,1.5,1.1,2.3,2c0.4,0.5,1.2-0.1,0.8-0.7c-0.6-0.8-1.3-1.3-1.8-1.8c1.7-0.6,4.5-0.6,6.5,0
		c-0.6,0.4-1.2,0.8-1.6,1.3c-0.4,0.6,0.4,1.1,0.8,0.6c0.5-0.6,1.5-1.2,2.2-1.5c2.1,0.2,3.7,1.3,4.3,1.9c0.1,0.1,0.3,0.2,0.5,0.3
		c2.4,0.6,4.5,2.8,5.4,4.7c0.1,0.1,0.1,0.2,0.2,0.3c1,0.9,1.8,1.9,2.5,2.9c-7.4-4.9-13.5,1.3-16.8,8.8c-0.3,0.7,0.6,1,0.9,0.4
		c2.5-5.6,8.6-14.7,17.2-6.9C51.3,22,51.8,26.2,52,30c-3.7-7.6-8.8-2.8-12.2-2.2c-0.7,0.1-0.5,1.1,0.2,1c3.9-0.7,8.8-6,12.1,4
		c0,0.6,0,3.9,0,4.9c0.1,3.1,0.8,6,1.4,8.6c1.4,5.8,2.4,8.9-3.2,14.6c-4.8,5-1.1,8.9,0.9,9.5c-0.8,0.2-1.7,0-2.4-0.6
		c-1-0.8-2.2,0.8-1.2,1.6c1.7,1.4,6.3,3.7,7.6,7C51.9,75.7,48.3,77.1,45.6,72.8z"/>
	<path class="st0" d="M33.8,43.7c-0.3-0.9-2.5-0.2-2.2,0.8C31.9,45.4,34.1,44.7,33.8,43.7z"/>
	<path class="st0" d="M39.5,55c0-2.3-1.2-2.9-2.7-3.9c-1.1-0.8-2.4-2.3-6.5-2.3c-3.4,0-4.8,1-6,1.9c-1.9,1.4-3.2,1.7-3.2,4.2
		c0,0.6,1,0.6,1,0c0-1,0.2-1.5,0.7-1.9c0.4,0.5,1,0.8,1.6,0.8c1,0,4.1-0.9,5.9-0.9c2,0,4.4,0.9,5.9,0.9c0.6,0,1.1-0.3,1.6-0.8
		c0.4,0.4,0.7,1,0.7,1.9C38.5,55.7,39.5,55.7,39.5,55z M24.3,52c0,0,0.6-0.4,0.6-0.5l0.1,1.1C24.9,52.7,24.6,52.4,24.3,52z M30.3,52
		c-1.1,0-4.1,0.6-4.2,0.7c0-0.1,0-0.2,0-0.3c0.4,0,0.8-0.1,1.1-0.5c0.6,0.2,1.1,0.1,1.4-0.2c0.6,0.4,1.2,0.3,1.7-0.1
		c0.4,0.3,1.1,0.4,1.7,0.1c0.3,0.3,0.8,0.4,1.4,0.2c0.2,0.3,0.6,0.5,1.1,0.5c0,0.1,0,0.2,0,0.3C34.4,52.6,31.4,52,30.3,52z M34,51
		c-0.1-0.3-0.5-0.4-0.8-0.2c-0.3,0.3-0.6,0.3-0.7,0c-0.1-0.4-0.6-0.4-0.9-0.1c-0.3,0.4-0.7,0.5-0.9,0c-0.2-0.4-0.8-0.3-0.9,0
		c-0.2,0.3-0.6,0.5-0.9,0c-0.2-0.3-0.7-0.3-0.9,0.1c-0.1,0.2-0.2,0.4-0.7,0c-0.3-0.2-0.7-0.1-0.8,0.2c-0.3,0.7-0.6,0.2-1,0.1
		c2.2-1.4,6.7-1.7,9.3,0C34.7,51.2,34.3,51.7,34,51z M35.5,52.7l0.1-1.1l0.6,0.5C36,52.4,35.6,52.7,35.5,52.7z"/>
	<path class="st0" d="M30.9,47.8c-0.5,0.3-0.1,1,0.4,0.9c2.9-0.6,5.6,1,6.6,2.2c0.4,0.5,1.2-0.1,0.8-0.6c-1-1.2-2.8-2.2-4.8-2.6
		c3.6-0.2,8.3,4,8.6,10.7c0.2,3.3-4.1,8.6-3.1,15c0.1,0.6,1.1,0.5,1-0.2c-1-6.5,3.3-11.1,3.1-14.9C43,49.5,35.4,44.3,30.9,47.8z"/>
	<path class="st0" d="M33.2,35.4C32.8,36,33.7,36.5,34,36c0.9-1.2,2.4-1.3,6.3-1.1c0.7,0,0.7-1,0.1-1C36.8,33.7,34.5,33.7,33.2,35.4
		z"/>
	<path class="st0" d="M33.7,34.5c1.3-1.5,3.7-1.5,4.4-1.4c0.7,0,0.8-1,0.1-1c-1-0.1-3.6,0-5.1,1.8C32.5,34.4,33.3,35,33.7,34.5z"/>
	<path class="st0" d="M32.7,30.9c2.5-5.7,10.4-13.9,15.7-8.8c0.5,0.5,1.2-0.3,0.7-0.7c-5.9-5.7-14.4,2.7-17.3,9.1
		C31.5,31.1,32.5,31.5,32.7,30.9z"/>
	<path class="st0" d="M33.1,15.7c2.5-3.9,7.5-4.6,10.8-3.1c0.6,0.3,1-0.6,0.4-0.9c-3.7-1.7-9.2-0.9-12,3.5
		C31.9,15.7,32.8,16.2,33.1,15.7z"/>
	<path class="st0" d="M25,44.6c1.2,3,9.2,3.4,10.6,0c0.5-1.1-0.6-2.7-3.2-4.8c-0.7-0.6-1.6-0.3-2.1-0.3c-0.6,0-1.4-0.3-2.2,0.3
		C25.6,41.9,24.5,43.5,25,44.6z M30.3,40.5c0.5,0,1.2-0.2,1.5,0.1c2.3,1.8,3.1,3.2,2.8,3.7c-0.9,2.3-7.8,2.4-8.7,0
		c-0.2-0.5,0.6-1.8,2.9-3.7C29.1,40.3,29.7,40.5,30.3,40.5z"/>
	<path class="st0" d="M27.4,38L27.4,38L27.4,38c0-0.9-0.8-1.7-1.6-1.8c-2.3-0.3-8.7-0.4-9.5,1.3c-0.3,0.6,0.4,1,0.8,0.5
		c1-1,2.9-0.8,3.6-0.8l0,0c-0.1,0.1-0.2,0.2-0.3,0.2c-0.2,0.2-0.3,0.5-0.1,0.7c1.4,2.1,5,1.3,5.6,1.1c-2.1,3.3-10,8.7-9.7,14
		c0,0.7,1,0.6,1,0C17,47.5,27.4,41.5,27.4,38z M21.5,37.9c0.3-0.2,0.8-0.6,1.1-0.7c0,0.4,0,0.8,0.3,1.2C22,38.4,21.8,38.3,21.5,37.9
		z M24.2,38.1c-0.5,0-0.8-0.6-0.6-1c0.4,0,0.8,0,1.2,0C25.1,37.7,24.6,38.1,24.2,38.1z M25.7,38.2c0.2-0.3,0.2-0.6,0.2-0.9
		c0.2,0.1,0.5,0.3,0.5,0.6C26.3,37.9,26,38.1,25.7,38.2z"/>
	<path class="st0" d="M26.8,43.7c-0.3,0.9,1.9,1.7,2.2,0.8S27.1,42.8,26.8,43.7z"/>
	<path class="st0" d="M22.2,57.9c0.5-0.5-0.3-1.2-0.8-0.6c-1.6,1.9-2.1,5.3-1.6,8.8c-5-12.2,2.4-18.6,6.8-18.4
		c-2,0.4-3.7,1.4-4.7,2.5c-0.5,0.5,0.4,1.1,0.8,0.6c1-1.2,3.7-2.8,6.6-2.2c0.6,0.1,0.8-0.7,0.4-0.9c-4.6-3.5-12.5,1.8-12.6,10.6
		c0,6.9,4.6,13.9,7.6,17.8c0.4,0.5,1.2,0,0.8-0.6C17.2,64.8,21.9,58.3,22.2,57.9z"/>
	<path class="st0" d="M20.2,34.9c3.9-0.2,5.5-0.1,6.3,1.1c0.3,0.5,1.2,0,0.8-0.6c-1.2-1.7-3.6-1.7-7.2-1.5
		C19.5,34,19.5,34.9,20.2,34.9z"/>
	<path class="st0" d="M22.5,32.1c-0.7,0-0.7,1,0.1,1c0.7,0,3,0,4.4,1.4c0.4,0.5,1.2-0.1,0.7-0.7C26,32.1,23.5,32,22.5,32.1z"/>
	<path class="st0" d="M27.3,29.5c0.3,0.6,1.2,0.2,0.9-0.4c-3.1-6.9-11-13.2-16.7-7.7c-0.5,0.4,0.2,1.2,0.7,0.7
		C17.5,17,24.7,23.7,27.3,29.5z"/>
	<path class="st0" d="M29.9,14.2c-2.7-4.7-9.4-4.8-13.1-3.1c-0.6,0.3-0.2,1.2,0.4,0.9c3.3-1.5,9.4-1.5,11.8,2.7
		C29.3,15.3,30.2,14.8,29.9,14.2z"/>
	<path class="st0" d="M30.7,57.4c0.2-0.6-0.8-0.9-1-0.3c-1.7,6.4,4.6,8.4,5.5,11.9c0.2,0.6,1.1,0.4,1-0.3C35.2,65,29.2,63,30.7,57.4
		z"/>
	<path class="st0" d="M27.8,56.6c0.4-0.6-0.4-1.2-0.8-0.6c-5,6.5,0.5,11.5,2,13.5c0.4,0.5,1.2,0,0.8-0.6
		C28.3,66.9,23.2,62.5,27.8,56.6z"/>
	<path class="st0" d="M50.1,44.3c-0.1-0.2-0.4-0.3-0.7-0.2c-0.2,0.1-0.3,0.4-0.2,0.7C54,53.3,51,56,47.8,58.9c-1,0.9-2,1.8-2.8,2.9
		c-0.2,0.2-0.1,0.5,0.1,0.7c0.1,0.1,0.2,0.1,0.3,0.1c0.2,0,0.3-0.1,0.4-0.2c0.7-1,1.6-1.8,2.6-2.7C51.7,56.8,55.3,53.6,50.1,44.3z"
		/>
	<path class="st0" d="M43.5,65.5c-0.4,1.4-0.7,4.4,0.1,5.7c0.3,0.5,1.2,0,0.8-0.5c-0.5-0.8-0.4-3.4,0.1-4.9
		C44.6,65.1,43.7,64.9,43.5,65.5z"/>
</g>
</svg>
