<?xml version="1.0" encoding="utf-8"?>
<!-- Generator: Adobe Illustrator 22.1.0, SVG Export Plug-In . SVG Version: 6.00 Build 0)  -->
<svg version="1.1" id="Layer_1" xmlns="http://www.w3.org/2000/svg" xmlns:xlink="http://www.w3.org/1999/xlink" x="0px" y="0px"
	 viewBox="0 0 17 20" style="enable-background:new 0 0 17 20;" xml:space="preserve">
<g>
	<!-- Old color: #000000 -->
	<path style="fill:none;stroke:#000000;stroke-miterlimit:10;" d="M13.5,19.5h-10c-1.7,0-3-1.4-3-3v-5.6c0-1.7,1.4-3,3-3h10
		c1.7,0,3,1.4,3,3v5.6C16.5,18.1,15.1,19.5,13.5,19.5z"/>
	<path style="fill:none;stroke:#000000;stroke-miterlimit:10;" d="M3.4,8.4V5.1c0-2.5,2.3-4.6,5.1-4.6h0c2.8,0,5.1,2.1,5.1,4.6v3.3"
		/>
	<path style="fill:none;stroke:#000000;stroke-miterlimit:10;" d="M10.6,12.7c0-1.1-1-1.9-2.1-1.9c-1.2,0-2.1,0.9-2.1,1.9
		c0,0.7,0.4,1.3,1.1,1.7v2.2c0,0.5,0.5,1,1.1,1c0.6,0,1.1-0.4,1.1-1v-2.2C10.2,14.1,10.6,13.4,10.6,12.7z"/>
</g>
</svg>
