<svg height="200pt" preserveAspectRatio="xMidYMid meet" viewBox="0 0 200 200" width="200pt"
        xmlns="http://www.w3.org/2000/svg">
    <g fill="#FFFFFF" transform="matrix(.1 0 0 -.1 0 200)">
        <path d="m817 1880c-284-60-495-273-574-580-19-76-26-137-33-300-10-227-26-328-65-422-66-157-67-161-62-225 12-153 143-265 293-250 71 7 107 28 190 107 52 51 80 71 110 77 51 11 597 11 648 0 30-6 58-26 110-77 83-79 119-100 190-107 150-15 281 97 293 250 5 53 1 73-22 127-57 137-67 167-81 240-8 41-19 167-24 280-11 240-29 328-94 465-24 49-64 118-91 153-168 223-481 327-788 262zm388-65c244-66 412-250 481-529 9-36 19-151 24-276 12-275 28-367 85-491 25-52 45-108 45-123 0-118-100-216-221-216-50 0-129 43-158 86-46 68-95 92-213 109l-48 6v139c0 130-1 139-20 145-11 3-29 3-40 0-19-6-20-15-20-146v-139h-40-40v159c0 151-1 160-20 166-11 3-29 3-40 0-19-6-20-15-20-166v-159h-40-40v139c0 131-1 140-20 146-11 3-29 3-40 0-19-6-20-15-20-145v-138l-42-7c-125-18-140-25-208-96s-117-99-172-99c-118 0-218 99-218 216 0 15 20 71 45 123 57 123 73 214 85 491 5 128 15 241 25 280 72 299 265 489 547 540 73 13 271 4 343-15z"/>
        <path d="m824 1110c-74-50-98-55-172-36-33 9-72 16-87 16-23 0-26-4-23-27 2-23 9-29 33-31 17-1 60-9 96-18 74-17 106-10 172 40 17 13 44 29 60 35 19 8 27 17 27 36 0 37-36 33-106-15z"/>
        <path d="m1110 1125c0-18 7-28 26-35 14-6 45-24 70-41 70-48 93-53 166-35 34 8 77 17 93 18 24 2 31 8 33 31 3 24 0 27-27 27-16 0-59-7-96-15-62-15-68-15-108 4-23 10-57 31-76 45-46 35-81 35-81 1z"/>
        <path d="m486 869c-108-116-128-174-83-240 63-94 193-85 242 17 22 47 15 94-29 188-57 121-52 119-130 35zm89-61c43-93 29-150-41-164-64-12-105 29-90 92 6 22 90 124 103 124 2 0 15-24 28-52z"/>
        <path d="m303 480c-85-51-81-179 6-225 116-60 239 71 171 182-37 61-116 81-177 43z"/>
        <path d="m1563 480c-61-37-81-116-43-177 50-83 170-83 220 0 70 114-63 247-177 177z"/>
    </g>
</svg>
